<?xml version="1.0" encoding="iso-8859-1"?>
<!-- Generator: Adobe Illustrator 16.0.0, SVG Export Plug-In . SVG Version: 6.00 Build 0)  -->
<!DOCTYPE svg PUBLIC "-//W3C//DTD SVG 1.1//EN" "http://www.w3.org/Graphics/SVG/1.1/DTD/svg11.dtd">
<svg version="1.1" id="Capa_1" xmlns="http://www.w3.org/2000/svg" xmlns:xlink="http://www.w3.org/1999/xlink" x="0px" y="0px"
	 width="504.255px" height="504.254px" viewBox="0 0 504.255 504.254" style="enable-background:new 0 0 504.255 504.254;"
	 xml:space="preserve">
<g>
	<g>
		<path d="M283.863,374.637c0-2.2,0.07-4.383,0.195-6.553c-51.003-3.162-98.544-5.461-98.544-5.461l-5.595-21.894h109.17
			c7.779-24.556,23.771-45.49,44.74-59.563l25.794-115.506c0.181-0.81,0.916-1.398,1.748-1.398h48.417
			c0.558,0,1.091,0.265,1.427,0.71c0.337,0.446,0.446,1.033,0.295,1.569l-27.327,96.262c4-0.432,8.062-0.66,12.177-0.66
			c12.307,0,24.154,1.992,35.248,5.662l30.268-106.625h16.88c14.083,0,25.5-11.417,25.5-25.5s-11.417-25.6-25.5-25.6l-363.982,0.037
			L99.517,57.593c-2.274-7.831-8.578-14.018-16.45-16.147L29.673,27.008c-2.012-0.544-4.081-0.82-6.149-0.82
			c-10.596,0-19.93,7.15-22.698,17.388c-1.641,6.065-0.82,12.407,2.31,17.856c3.129,5.449,8.192,9.353,14.258,10.993l40.631,10.987
			l82.486,297.522c-11.749,5.797-19.367,17.809-19.367,31.184c0,19.18,15.604,34.783,34.783,34.783
			c19.179,0,34.784-15.604,34.784-34.783c0-0.453-0.009-0.904-0.026-1.357h99.129C285.957,399.418,283.863,387.268,283.863,374.637z
			 M233.492,164.931c0.341-0.425,0.85-0.669,1.395-0.669h73.085c0.546,0,1.055,0.244,1.397,0.672
			c0.341,0.425,0.468,0.975,0.349,1.508l-21.519,118.746c-0.183,0.822-0.9,1.396-1.744,1.396h-30.05
			c-0.845,0-1.563-0.576-1.748-1.398l-21.516-118.748C233.022,165.907,233.149,165.359,233.492,164.931z M164.42,283.377
			c-0.255-0.9-33.072-116.839-33.072-116.839c-0.152-0.535-0.042-1.121,0.293-1.564c0.337-0.446,0.871-0.712,1.43-0.712h48.418
			c0.844,0,1.562,0.575,1.745,1.399l26.407,118.246l0.096,0.365c0.05,0.163,0.075,0.338,0.075,0.521
			c0,0.979-0.788,1.775-1.762,1.791h-41.273C165.27,286.584,164.675,284.279,164.42,283.377z"/>
		<g>
			<path d="M401.629,283.077c-53.846,0-97.496,43.65-97.496,97.495s43.65,97.495,97.496,97.495c53.845,0,97.494-43.65,97.494-97.495
				S455.474,283.077,401.629,283.077z M455.625,395.573h-39.248v38.996c0,8.285-6.716,15-15,15s-15-6.715-15-15v-38.996h-38.746
				c-8.283,0-15-6.717-15-15.001s6.717-15,15-15h38.746v-38.997c0-8.283,6.716-15,15-15s15,6.717,15,15v38.997h39.248
				c8.285,0,15,6.716,15,15S463.91,395.573,455.625,395.573z"/>
		</g>
	</g>
</g>
<g>
</g>
<g>
</g>
<g>
</g>
<g>
</g>
<g>
</g>
<g>
</g>
<g>
</g>
<g>
</g>
<g>
</g>
<g>
</g>
<g>
</g>
<g>
</g>
<g>
</g>
<g>
</g>
<g>
</g>
</svg>
