<?xml version="1.0" encoding="iso-8859-1"?>
<!-- Generator: Adobe Illustrator 19.0.0, SVG Export Plug-In . SVG Version: 6.00 Build 0)  -->
<svg version="1.1" id="Capa_1" xmlns="http://www.w3.org/2000/svg" xmlns:xlink="http://www.w3.org/1999/xlink" x="0px" y="0px"
	 viewBox="0 0 512 512" style="enable-background:new 0 0 512 512;" xml:space="preserve">
<g>
	<path style="fill:#FF5364;" d="M512,185.379v247.172c0,9.751-7.905,17.655-17.655,17.655H17.655C7.904,450.207,0,442.302,0,432.552
		V79.448c0-9.751,7.904-17.655,17.655-17.655h476.69c9.751,0,17.655,7.904,17.655,17.655V185.379z"/>
	<path style="fill:#FB7B76;" d="M507.586,67.884L273.037,268.182c-9.842,8.299-24.232,8.299-34.074,0L4.414,67.884
		c3.313-3.865,8.15-6.09,13.241-6.091h476.69C499.436,61.794,504.273,64.019,507.586,67.884z"/>
	<path style="fill:#DF4D60;" d="M505.732,445.97c-3.165,2.732-7.206,4.236-11.388,4.237H17.655
		c-4.181-0.001-8.223-1.505-11.388-4.237l195.531-209.479l37.164,31.691c9.842,8.299,24.232,8.299,34.074,0l37.076-31.691
		L505.732,445.97z"/>
</g>
<g>
</g>
<g>
</g>
<g>
</g>
<g>
</g>
<g>
</g>
<g>
</g>
<g>
</g>
<g>
</g>
<g>
</g>
<g>
</g>
<g>
</g>
<g>
</g>
<g>
</g>
<g>
</g>
<g>
</g>
</svg>
